<svg xmlns="http://www.w3.org/2000/svg" viewBox="0 0 24 24" width="24" height="24">
  <path fill="#39594D" d="M14.614 2.527C18.665 2.527 22 5.862 22 9.913c0 2.545-1.328 4.793-3.328 6.064l-.066.04-.07.039c-1.127.625-2.43.978-3.816.978-4.051 0-7.386-3.335-7.386-7.386 0-4.051 3.335-7.386 7.386-7.386zM6.924 9.913a5.46 5.46 0 0 1 5.462-5.462c.49 0 .964.065 1.415.186A7.34 7.34 0 0 0 12.68 9.913c0 2.766 1.53 5.176 3.791 6.425a5.45 5.45 0 0 1-2.547.637 5.46 5.46 0 0 1-5.462-5.462z"/>
  <path fill="#D2A3FF" d="M12.68 14.087a7.34 7.34 0 0 0 1.12-5.274 7.386 7.386 0 0 1 4.792 6.721c0 4.051-3.335 7.386-7.386 7.386-4.051 0-7.386-3.335-7.386-7.386 0-2.482 1.252-4.686 3.166-5.992a5.45 5.45 0 0 0-.242 1.585c0 3.016 2.446 5.462 5.462 5.462.87 0 1.69-.204 2.418-.564-.783-.822-1.32-1.92-1.474-3.138z"/>
  <circle cx="6.5" cy="18" r="4.5" fill="#FF7759"/>
</svg>